<svg viewBox="0 0 345.98 334.06" xmlns="http://www.w3.org/2000/svg"><defs><linearGradient id="a" x2="1" gradientTransform="matrix(84.156 0 0 -84.156 150.28 176.04)" gradientUnits="userSpaceOnUse"><stop stop-color="#f1511b" offset="0"/><stop stop-color="#fff" offset="1"/></linearGradient><clipPath id="b"><path d="M0 283.465h283.465V0H0Z"/></clipPath></defs><path d="M192.09 252.55c-.507-.73-.325-1.732.409-2.24.732-.507 1.733-.326 2.241.408.508.728.326 1.732-.405 2.24-.281.194-.601.288-.918.288-.51 0-1.011-.242-1.327-.696m1.148-11.07c-.796-.773-.811-2.052-.035-2.844.78-.795 2.055-.811 2.847-.035s.809 2.054.032 2.85c-.392.403-.913.607-1.435.607-.507 0-1.016-.192-1.409-.578m12.377.099c-.636-.622-.647-1.641-.029-2.279.622-.638 1.642-.651 2.279-.03.639.622.651 1.641.035 2.281-.317.323-.736.485-1.156.485-.407 0-.814-.152-1.129-.457m-25.49-1.542c-.964-1.44-.584-3.394.861-4.357 1.435-.969 3.388-.588 4.361.856.963 1.443.583 3.392-.859 4.36-.539.361-1.148.534-1.751.534-1.013 0-2.007-.489-2.612-1.393m11.779-8.853c-1.235-1.221-1.239-3.212-.023-4.44 1.226-1.236 3.211-1.242 4.454-.021 1.227 1.22 1.236 3.21.017 4.445-.616.619-1.424.929-2.232.929-.801 0-1.601-.304-2.216-.913m12.624-.568c-.924-.615-1.18-1.863-.566-2.79.617-.927 1.861-1.181 2.791-.57.926.616 1.179 1.866.568 2.791-.388.586-1.03.904-1.684.904-.381 0-.767-.108-1.109-.335m-24.968-2.063c-1.301-1.288-1.311-3.381-.026-4.678 1.287-1.301 3.374-1.311 4.677-.023 1.298 1.282 1.307 3.378.022 4.674-.647.655-1.5.983-2.353.983-.839 0-1.678-.318-2.32-.956m37.034-.016c-.741-.491-.943-1.491-.448-2.232.486-.744 1.489-.945 2.232-.45.738.488.94 1.492.454 2.229-.31.469-.822.723-1.345.723-.307 0-.618-.088-.893-.27m-47.592-4.662c-1.201-1.779-.733-4.194 1.045-5.391 1.777-1.2 4.194-.728 5.392 1.051 1.199 1.779.726 4.189-1.052 5.39-.665.448-1.42.663-2.166.663-1.249 0-2.475-.602-3.219-1.713m20.008-3.824c-1.524-1.003-1.948-3.059-.944-4.582 1.007-1.524 3.055-1.948 4.583-.941 1.525 1.005 1.948 3.058.94 4.583-.634.963-1.69 1.487-2.765 1.488-.625 0-1.256-.177-1.814-.548m13.216-.598c-1.463-.94-1.888-2.884-.948-4.344.933-1.461 2.879-1.887 4.343-.946 1.457.936 1.882 2.874.955 4.337-.603.937-1.62 1.448-2.658 1.448-.58 0-1.167-.16-1.692-.495m-24.774-1.609c-1.51-1.521-1.51-3.98.015-5.493 1.521-1.513 3.983-1.508 5.488.013 1.518 1.522 1.512 3.978-.011 5.491-.756.755-1.748 1.133-2.74 1.133-.997 0-1.994-.382-2.752-1.144m-15.853-3.015c-1.371-2.042-.821-4.811 1.228-6.181 2.041-1.368 4.813-.818 6.186 1.229 1.367 2.046.816 4.814-1.228 6.186-.761.508-1.621.751-2.471.751-1.439 0-2.851-.697-3.715-1.985m52.678 1.74c-1.029-.41-1.537-1.582-1.131-2.618.415-1.032 1.586-1.538 2.621-1.125 1.033.409 1.535 1.581 1.125 2.614-.313.792-1.072 1.271-1.873 1.271-.247 0-.498-.046-.742-.142m10.913-3.413c-.822-.342-1.207-1.282-.873-2.105.339-.824 1.278-1.212 2.104-.875.821.341 1.214 1.284.872 2.104-.255.623-.854.997-1.488.998-.205 0-.413-.04-.615-.122m-40.161-3.165c-1.804-1.17-2.311-3.576-1.142-5.375 1.168-1.795 3.575-2.306 5.367-1.138 1.8 1.172 2.312 3.572 1.149 5.37-.748 1.147-1.995 1.77-3.265 1.77-.725 0-1.457-.202-2.109-.627m11.536-.057c-1.691-.687-2.506-2.618-1.814-4.311.689-1.69 2.617-2.504 4.309-1.813 1.694.686 2.507 2.615 1.81 4.309-.52 1.283-1.752 2.062-3.057 2.062-.416 0-.838-.079-1.248-.247m12.231-1.737c-1.61-.669-2.36-2.511-1.698-4.108.661-1.606 2.506-2.364 4.114-1.697 1.595.668 2.356 2.505 1.694 4.107-.509 1.21-1.678 1.938-2.908 1.938-.401 0-.809-.077-1.202-.24m-55.159-2.284c-1.854-2.189-1.588-5.465.61-7.321 2.185-1.857 5.465-1.584 7.319.611 1.855 2.188 1.579 5.466-.607 7.318-.978.827-2.171 1.231-3.358 1.231-1.475 0-2.939-.624-3.964-1.839m19.127.525c-1.946-1.506-2.305-4.302-.792-6.251 1.504-1.948 4.308-2.303 6.256-.794 1.944 1.504 2.294 4.304.789 6.252-.879 1.134-2.194 1.728-3.525 1.729-.953 0-1.914-.306-2.728-.936m47.488-3.492c-1.088-.217-1.794-1.279-1.57-2.371.217-1.089 1.273-1.793 2.369-1.576 1.089.218 1.8 1.281 1.574 2.37-.188.959-1.029 1.617-1.97 1.617-.133 0-.267-.013-.403-.04m-30.029-1.365c-1.965-.851-2.88-3.132-2.026-5.102.849-1.971 3.129-2.879 5.105-2.032 1.964.851 2.876 3.135 2.027 5.104-.634 1.471-2.063 2.349-3.567 2.349-.514 0-1.036-.103-1.539-.319m11.641-2.655c-1.79-.358-2.952-2.1-2.594-3.89.355-1.795 2.099-2.955 3.889-2.596 1.793.356 2.954 2.101 2.597 3.894-.315 1.568-1.697 2.656-3.241 2.656-.214 0-.432-.021-.651-.064m-36.982-.829c-2.605-1.196-3.753-4.281-2.561-6.887 1.2-2.609 4.283-3.758 6.89-2.56 2.61 1.195 3.754 4.279 2.556 6.886-.876 1.909-2.758 3.035-4.725 3.035-.724 0-1.459-.152-2.16-.474m65.588-.838c-.875-.182-1.426-1.033-1.239-1.908.177-.869 1.032-1.426 1.904-1.24.869.184 1.426 1.036 1.243 1.907-.156.756-.827 1.276-1.572 1.276-.111 0-.223-.011-.336-.035m-16.956-2.152c-1.698-.356-2.788-2.022-2.433-3.72.354-1.699 2.02-2.785 3.726-2.434 1.692.36 2.781 2.022 2.429 3.719-.308 1.483-1.619 2.502-3.076 2.502-.213 0-.429-.022-.646-.067m-32.371-1.138c-2.347-.757-3.628-3.269-2.868-5.61.751-2.344 3.26-3.63 5.603-2.874 2.343.755 3.631 3.268 2.88 5.611-.613 1.888-2.36 3.09-4.242 3.09-.455 0-.917-.07-1.373-.217m12.757-2.575c-2.091-.481-3.396-2.572-2.906-4.66.486-2.09 2.57-3.389 4.664-2.905 2.083.489 3.382 2.574 2.895 4.663-.415 1.792-2.005 3.005-3.769 3.005-.292 0-.588-.033-.884-.103m29.778-2.755c-1.108-.023-1.996-.943-1.968-2.056.018-1.112.943-1.993 2.055-1.971 1.109.023 1.988.943 1.971 2.055-.026 1.097-.925 1.972-2.015 1.972h-.043m-57.17-7.579c-.029-2.869 2.272-5.219 5.141-5.247 2.87-.027 5.223 2.27 5.248 5.141.028 2.87-2.273 5.221-5.14 5.247h-.056c-2.849 0-5.167-2.288-5.193-5.141m35.303 1.834c-.016-1.827 1.457-3.319 3.287-3.331 1.827-.014 3.314 1.456 3.33 3.282.008 1.826-1.457 3.317-3.287 3.334h-.018c-1.813 0-3.303-1.464-3.312-3.285m13.952-2.4c-1.739-.012-3.138-1.428-3.12-3.163.003-1.736 1.425-3.131 3.162-3.121 1.739.014 3.136 1.427 3.126 3.163-.013 1.73-1.42 3.121-3.148 3.121h-.02m-35.289-4.635c-.053-2.463 1.892-4.504 4.358-4.557 2.459-.057 4.499 1.896 4.551 4.355.059 2.462-1.897 4.502-4.354 4.559-.034 0-.069.001-.103.001-2.415 0-4.399-1.933-4.452-4.358m11.795.19c-.016-2.147 1.707-3.896 3.849-3.915 2.151-.018 3.899 1.708 3.921 3.853.014 2.146-1.712 3.898-3.861 3.913h-.031c-2.128 0-3.862-1.72-3.878-3.851m40.535 3.364c-.893-.008-1.601-.738-1.598-1.627.01-.891.74-1.604 1.63-1.593.892.009 1.608.738 1.596 1.625-.007.886-.73 1.595-1.609 1.595h-.019m-66.76-9.061c-1.224-2.594-.1-5.691 2.487-6.913 2.6-1.219 5.693-.106 6.912 2.492 1.221 2.598.108 5.695-2.49 6.912-.715.336-1.467.495-2.208.495-1.951 0-3.82-1.103-4.701-2.986m35.709-.652c-.413-1.781.707-3.553 2.49-3.963 1.777-.406 3.548.71 3.957 2.49.406 1.779-.706 3.553-2.487 3.96-.25.057-.499.084-.744.084-1.507 0-2.866-1.036-3.216-2.571m20.279-.06c-.215-1.097.505-2.148 1.602-2.357 1.089-.21 2.142.508 2.352 1.598.214 1.093-.506 2.147-1.598 2.355-.13.025-.259.038-.386.038-.945 0-1.784-.67-1.97-1.634m-30.844-3.491c-.436-2.104.911-4.159 3.012-4.592 2.1-.437 4.155.912 4.593 3.014.434 2.1-.91 4.152-3.015 4.591-.265.055-.531.081-.792.082-1.803 0-3.421-1.262-3.798-3.095m-12.572-1.457c-.761-2.34.515-4.856 2.862-5.617 2.34-.762 4.855.518 5.615 2.859.765 2.343-.519 4.856-2.858 5.619-.459.149-.925.221-1.383.221-1.878 0-3.624-1.197-4.236-3.082m32.564-2.472c-.359-1.696.726-3.361 2.432-3.72 1.695-.355 3.362.732 3.722 2.427.35 1.7-.73 3.366-2.431 3.723-.218.046-.436.068-.65.068-1.458 0-2.762-1.013-3.073-2.498m-49.524-.782c-2.13-1.922-2.298-5.212-.377-7.342 1.921-2.131 5.207-2.301 7.335-.378 2.137 1.924 2.303 5.211.382 7.335-1.027 1.139-2.444 1.719-3.865 1.719-1.239 0-2.482-.44-3.475-1.334m67.939-1.804c-.167-.874.403-1.717 1.275-1.891.869-.171 1.72.398 1.891 1.272.175.87-.398 1.716-1.271 1.889-.104.021-.208.031-.31.031-.753 0-1.43-.534-1.585-1.301m-30.14-.93c-.728-1.673.045-3.623 1.72-4.354 1.668-.726 3.618.044 4.348 1.719.724 1.674-.037 3.625-1.715 4.35-.429.187-.877.276-1.318.276-1.279 0-2.498-.744-3.035-1.991m-11.066-1.576c-.825-1.986.125-4.255 2.11-5.071 1.98-.821 4.252.124 5.072 2.106.811 1.985-.131 4.255-2.11 5.071-.486.2-.989.295-1.483.295-1.527 0-2.971-.905-3.589-2.401m-14.177-1.703c-1.35-2.061-.772-4.826 1.284-6.175 2.063-1.348 4.825-.771 6.173 1.289 1.349 2.059.776 4.819-1.284 6.169-.753.495-1.601.731-2.44.731-1.454 0-2.879-.71-3.733-2.014m44.808-1.729c-.421-1.029.065-2.205 1.094-2.63 1.029-.423 2.202.066 2.628 1.097.425 1.026-.065 2.202-1.095 2.627-.251.104-.511.153-.767.153-.79 0-1.541-.47-1.86-1.247m-65.394.918c-2.732-.882-4.233-3.809-3.35-6.542.88-2.73 3.808-4.229 6.533-3.35 2.736.88 4.237 3.81 3.358 6.537-.711 2.206-2.751 3.606-4.947 3.606-.527 0-1.064-.081-1.594-.251m53.42-5.673c-.677-1.596.062-3.438 1.66-4.125 1.598-.68 3.436.06 4.123 1.653.677 1.601-.057 3.446-1.66 4.127-.402.172-.821.254-1.234.254-1.22 0-2.382-.715-2.889-1.909m-11.909-.701c-1.031-1.513-.637-3.567.878-4.595 1.505-1.026 3.561-.63 4.593.881 1.023 1.508.63 3.566-.879 4.593-.568.387-1.215.572-1.854.572-1.059 0-2.099-.509-2.738-1.451m-11.797-.382c-1.213-1.77-.762-4.187 1.006-5.398 1.777-1.214 4.187-.759 5.401 1.009 1.218 1.771.757 4.187-1.01 5.4-.671.46-1.434.68-2.19.68-1.238 0-2.455-.591-3.207-1.691m-17.506-1.661c-1.928-1.524-2.261-4.33-.733-6.262 1.529-1.93 4.335-2.257 6.263-.733 1.933 1.528 2.259 4.33.735 6.263-.882 1.112-2.186 1.693-3.503 1.693-.967 0-1.942-.313-2.762-.961m11.319-5.711c-1.528-1.51-1.538-3.967-.029-5.492 1.507-1.523 3.963-1.535 5.488-.029 1.528 1.51 1.544 3.965.032 5.493-.76.767-1.76 1.151-2.76 1.151-.988.001-1.975-.374-2.731-1.123m46.489.046c-.36-.814.013-1.766.825-2.126.81-.364 1.758.007 2.121.817.364.816-.008 1.765-.82 2.126-.212.094-.434.139-.653.139-.618 0-1.206-.357-1.473-.956m-11.052-2.387c-.63-.922-.395-2.176.521-2.801.92-.625 2.18-.392 2.802.526.634.918.395 2.172-.527 2.8-.346.238-.741.352-1.132.352-.641 0-1.273-.307-1.664-.877m-24.404-.325c-1.319-1.267-1.357-3.364-.087-4.68 1.271-1.31 3.365-1.349 4.677-.081 1.315 1.268 1.35 3.363.082 4.678-.649.673-1.512 1.011-2.376 1.011-.826 0-1.653-.309-2.296-.928m12.494-.693c-.972-1.438-.591-3.387.852-4.364 1.436-.967 3.385-.584 4.362.851.967 1.441.584 3.394-.855 4.363-.538.365-1.149.54-1.753.54-1.01 0-2.002-.489-2.606-1.39m-31.311-3.001c-1.813-1.155-2.336-3.557-1.18-5.363 1.157-1.809 3.559-2.334 5.367-1.183 1.804 1.158 2.331 3.56 1.179 5.368-.744 1.157-1.997 1.789-3.278 1.789-.716 0-1.44-.197-2.088-.611m10.517-4.563c-1.537-.991-1.968-3.045-.978-4.577.987-1.531 3.039-1.967 4.575-.975 1.531.991 1.971 3.038.977 4.575-.636.977-1.698 1.509-2.781 1.509-.616 0-1.238-.172-1.793-.532m11.396-3.747c-1.243-1.211-1.27-3.198-.066-4.448 1.211-1.242 3.202-1.271 4.447-.069 1.247 1.211 1.276 3.201.065 4.448-.617.636-1.436.955-2.256.955-.788 0-1.578-.295-2.19-.886m12.636-.546c-.796-.786-.803-2.063-.027-2.851.779-.792 2.059-.8 2.851-.022.793.784.799 2.057.015 2.846-.392.401-.91.602-1.43.602-.508 0-1.017-.192-1.409-.575m10.632-.731c-.519-.725-.353-1.732.366-2.251.724-.517 1.733-.355 2.251.367.517.722.357 1.733-.367 2.247-.286.205-.615.303-.94.303-.501 0-.993-.232-1.31-.666m-34.44-7.637c-1.459-.932-1.882-2.876-.949-4.347.931-1.455 2.876-1.882 4.337-.951 1.465.936 1.896 2.88.953 4.341-.599.939-1.616 1.452-2.653 1.452-.58 0-1.165-.16-1.688-.495m12.317-3.024c-.934-.611-1.196-1.857-.59-2.79.605-.932 1.853-1.194 2.784-.587.931.606 1.196 1.854.59 2.783-.388.595-1.035.917-1.693.917-.376 0-.755-.105-1.091-.323m12.318-.873c-.636-.624-.636-1.641-.012-2.276.62-.631 1.645-.641 2.278-.016.638.623.638 1.642.017 2.276-.315.32-.732.481-1.149.481-.408 0-.818-.154-1.134-.465m-13.806-11.213c-.741-.487-.952-1.489-.46-2.233.486-.743 1.483-.951 2.222-.464.755.488.955 1.485.467 2.228-.304.474-.819.731-1.346.731-.303 0-.61-.085-.883-.262" fill="url(#a)" transform="matrix(1.3333 0 0 -1.3333 -13.396 359.152)"/><g clip-path="url(#b)" transform="matrix(1.3333 0 0 -1.3333 -13.396 359.152)"><path d="M150.42 205.43c-.768-2.765-3.642-4.379-6.402-3.605-2.766.768-4.376 3.639-3.603 6.402.764 2.764 3.635 4.374 6.399 3.604 2.763-.77 4.376-3.639 3.606-6.401m-12.05-58.41c.258 2.856 2.788 4.965 5.642 4.71 2.864-.262 4.967-2.786 4.709-5.647-.257-2.854-2.782-4.962-5.643-4.704-2.858.255-4.964 2.787-4.708 5.641m-11.21 3.59c1.335 2.54 4.484 3.509 7.022 2.173 2.535-1.344 3.507-4.483 2.166-7.021-1.335-2.538-4.483-3.507-7.021-2.171-2.535 1.339-3.508 4.484-2.167 7.019m-9.27 8.03c2.241 1.788 5.507 1.422 7.297-.826 1.787-2.246 1.419-5.511-.825-7.301-2.243-1.79-5.514-1.414-7.304.829s-1.417 5.513.832 7.298m-5.26 11.01c2.77.748 5.623-.896 6.367-3.667.737-2.775-.902-5.621-3.68-6.365-2.765-.746-5.616.9-6.364 3.674-.741 2.768.905 5.619 3.677 6.358m-.51 11.7c2.848-.374 4.85-2.984 4.473-5.83-.375-2.844-2.985-4.846-5.831-4.466-2.845.37-4.848 2.986-4.472 5.829.377 2.843 2.992 4.843 5.83 4.467m4.26 11.39c2.466-1.473 3.265-4.665 1.788-7.129-1.476-2.458-4.667-3.259-7.126-1.779-2.464 1.473-3.256 4.663-1.79 7.126 1.477 2.459 4.671 3.255 7.128 1.782m8.43 8.76c1.675-2.332 1.137-5.577-1.192-7.25-2.337-1.672-5.579-1.14-7.25 1.196-1.675 2.328-1.141 5.575 1.192 7.246 2.328 1.675 5.578 1.139 7.25-1.192m12.58 4.91c.479-2.832-1.425-5.514-4.257-5.992-2.832-.475-5.508 1.43-5.987 4.261-.476 2.829 1.429 5.51 4.261 5.985 2.826.48 5.504-1.427 5.983-4.254m8.86-73.12c0-2.462-1.995-4.459-4.462-4.459-2.457 0-4.449 1.997-4.449 4.459 0 2.459 1.992 4.456 4.449 4.456 2.467 0 4.462-1.997 4.462-4.456m13.46 3.68c.778-2.339-.481-4.859-2.816-5.639-2.336-.776-4.862.483-5.638 2.82-.78 2.334.478 4.858 2.815 5.638 2.338.778 4.863-.481 5.639-2.819m-22.64 82.74c.076 2.463 2.131 4.393 4.593 4.315 2.467-.076 4.396-2.136 4.32-4.597-.083-2.462-2.146-4.393-4.601-4.311-2.462.075-4.392 2.135-4.312 4.593m13.19-.38c.78 2.333 3.312 3.589 5.645 2.806 2.335-.788 3.589-3.315 2.802-5.648-.783-2.333-3.31-3.59-5.641-2.805-2.339.785-3.589 3.311-2.806 5.647M123.92 216c-.725 2.352.589 4.849 2.942 5.575 2.352.725 4.844-.59 5.577-2.941.726-2.351-.591-4.85-2.944-5.576-2.35-.731-4.849.588-5.575 2.942m-12.03-8.23c-1.486 1.966-1.095 4.762.874 6.245 1.963 1.482 4.756 1.093 6.242-.87 1.484-1.964 1.094-4.762-.876-6.244-1.962-1.486-4.756-1.097-6.24.869m-12.622-22.69c-2.324.815-3.552 3.354-2.74 5.679.816 2.325 3.356 3.548 5.683 2.738 2.324-.816 3.548-3.358 2.733-5.682-.812-2.323-3.354-3.547-5.676-2.735m4.312 12.54c-2.029 1.39-2.543 4.166-1.15 6.199 1.394 2.028 4.171 2.545 6.198 1.149 2.034-1.393 2.547-4.171 1.151-6.2-1.393-2.029-4.169-2.544-6.199-1.148m-5.071-25.92c-2.46.092-4.383 2.158-4.292 4.618s2.157 4.384 4.616 4.295c2.46-.089 4.379-2.156 4.298-4.617-.089-2.458-2.156-4.382-4.622-4.296m3.531-13.25c-2.363-.693-4.843.656-5.531 3.021-.697 2.361.658 4.839 3.018 5.535 2.359.693 4.839-.66 5.531-3.023.693-2.364-.653-4.838-3.018-5.533m7.71-11.48c-1.992-1.454-4.779-1.024-6.237.96-1.45 1.987-1.022 4.778.963 6.233 1.986 1.458 4.775 1.028 6.232-.96 1.453-1.984 1.028-4.775-.958-6.233m21.64-12.92c-.851-2.312-3.408-3.503-5.722-2.654-2.308.845-3.5 3.404-2.653 5.717.847 2.311 3.407 3.501 5.722 2.654 2.308-.845 3.497-3.404 2.653-5.717m-11.27 4.57c-1.426-2.01-4.208-2.485-6.217-1.062-2.004 1.424-2.485 4.207-1.061 6.214 1.422 2.01 4.202 2.485 6.216 1.06 2.004-1.419 2.48-4.203 1.062-6.212m25.56 92.47c0-2.146-1.735-3.884-3.887-3.884-2.139 0-3.878 1.738-3.878 3.884 0 2.145 1.739 3.883 3.878 3.883 2.152 0 3.887-1.738 3.887-3.883m10.59-1.85c-.421-2.104-2.467-3.467-4.566-3.046-2.102.417-3.469 2.464-3.048 4.566.42 2.105 2.466 3.47 4.572 3.049 2.1-.42 3.462-2.465 3.042-4.569m9.53-3.63c-.805-1.988-3.069-2.95-5.058-2.146-1.991.804-2.946 3.066-2.146 5.055.801 1.989 3.061 2.947 5.053 2.147 1.992-.804 2.95-3.068 2.151-5.056M87.117 180.2c2.146.018 3.893-1.709 3.912-3.857.013-2.142-1.715-3.893-3.854-3.911-2.149-.014-3.894 1.711-3.912 3.853-.016 2.149 1.707 3.897 3.854 3.915m1.761 10.6c2.106-.406 3.484-2.441 3.084-4.546-.406-2.106-2.442-3.485-4.545-3.079-2.11.404-3.484 2.438-3.081 4.544.399 2.106 2.432 3.485 4.542 3.081m3.564 9.56c1.992-.788 2.966-3.045 2.181-5.038-.79-1.996-3.047-2.972-5.039-2.184-1.994.787-2.972 3.043-2.183 5.037.788 1.995 3.044 2.972 5.041 2.185m5.999 9.69c1.785-1.187 2.273-3.594 1.092-5.381-1.187-1.788-3.594-2.278-5.384-1.09-1.787 1.182-2.277 3.592-1.09 5.378 1.182 1.788 3.589 2.276 5.382 1.093m7.119 7.57c1.528-1.502 1.551-3.962.051-5.49-1.505-1.532-3.96-1.554-5.491-.055-1.534 1.504-1.557 3.962-.054 5.493 1.502 1.531 3.961 1.556 5.494.052m8.83 6.37c1.18-1.792.691-4.2-1.099-5.381s-4.197-.689-5.38 1.099c-1.18 1.791-.693 4.199 1.1 5.382 1.787 1.179 4.194.689 5.379-1.1m9 4.11c.863-1.964-.035-4.254-1.995-5.118s-4.252.026-5.115 1.99c-.863 1.962.03 4.255 1.986 5.118 1.962.864 4.254-.026 5.124-1.99m10.6 2.43c.5-2.085-.784-4.182-2.869-4.681-2.089-.503-4.179.783-4.678 2.867-.506 2.085.78 4.182 2.863 4.681 2.095.501 4.182-.781 4.684-2.867M138 122.04c-.016 2.146 1.71 3.896 3.859 3.909 2.142.02 3.89-1.709 3.909-3.852.013-2.148-1.714-3.897-3.857-3.911-2.142-.016-3.893 1.714-3.911 3.854m-10.6 1.77c.407 2.104 2.45 3.482 4.553 3.077 2.103-.404 3.486-2.44 3.077-4.545-.405-2.106-2.439-3.484-4.549-3.079-2.103.404-3.48 2.443-3.081 4.547m-9.56 3.57c.792 1.993 3.048 2.971 5.041 2.183 1.995-.791 2.973-3.046 2.185-5.043-.791-1.994-3.052-2.97-5.039-2.178-1.994.787-2.976 3.044-2.187 5.038m-9.68 6c1.192 1.791 3.596 2.276 5.386 1.091 1.788-1.187 2.272-3.596 1.087-5.382-1.18-1.79-3.59-2.276-5.38-1.088-1.79 1.185-2.273 3.594-1.093 5.379m-7.56 7.12c1.496 1.53 3.955 1.555 5.486.053 1.534-1.502 1.553-3.962.054-5.492-1.502-1.528-3.961-1.557-5.489-.053-1.533 1.505-1.556 3.962-.051 5.492m-6.368 8.84c1.787 1.183 4.201.691 5.38-1.101 1.181-1.788.687-4.196-1.103-5.381-1.794-1.18-4.201-.688-5.379 1.107-1.183 1.788-.688 4.191 1.102 5.375m-4.107 9c1.965.861 4.257-.032 5.114-1.995.87-1.963-.025-4.254-1.992-5.115-1.958-.863-4.247.03-5.108 1.993-.868 1.963.023 4.254 1.986 5.117m-2.426 10.61c2.083.502 4.181-.786 4.68-2.869.499-2.087-.787-4.183-2.874-4.682-2.084-.502-4.178.783-4.673 2.871-.503 2.089.78 4.178 2.867 4.68m71.431-44.16c-.835 1.976.092 4.254 2.071 5.089 1.976.833 4.246-.096 5.081-2.069.839-1.974-.091-4.254-2.063-5.089-1.973-.831-4.249.095-5.089 2.069m-10.63-2.27c-.474 2.095.844 4.169 2.938 4.638 2.088.472 4.166-.847 4.634-2.942.474-2.091-.844-4.165-2.938-4.635-2.091-.469-4.162.845-4.634 2.939m-10.59 117.77c0-1.827-1.477-3.31-3.307-3.31-1.833 0-3.31 1.483-3.31 3.31 0 1.825 1.477 3.309 3.31 3.309 1.83 0 3.307-1.484 3.307-3.309m14.8-.92c-.416-1.778-2.198-2.879-3.977-2.453-1.78.419-2.88 2.2-2.461 3.978.426 1.779 2.209 2.877 3.99 2.458 1.774-.423 2.872-2.207 2.448-3.983m11.48-3.21c-.737-1.666-2.697-2.416-4.363-1.669-1.668.744-2.416 2.702-1.675 4.369.748 1.667 2.704 2.415 4.374 1.67 1.664-.745 2.416-2.7 1.664-4.37m10.2-4.99c-1.025-1.512-3.084-1.901-4.597-.873-1.505 1.029-1.894 3.086-.863 4.597 1.024 1.508 3.085 1.9 4.594.871 1.515-1.03 1.895-3.089.866-4.595m-5.81-112.3c-.692 1.696.123 3.626 1.811 4.315 1.691.691 3.626-.127 4.316-1.818.689-1.692-.124-3.622-1.815-4.315-1.695-.683-3.619.132-4.312 1.818m-11.53-4.14c-.353 1.793.814 3.534 2.608 3.886 1.793.355 3.529-.814 3.884-2.609.353-1.79-.815-3.529-2.608-3.882-1.797-.352-3.532.813-3.884 2.605m-11.86-1.84c-.004 1.828 1.47 3.315 3.291 3.326 1.833.013 3.314-1.462 3.325-3.288.017-1.828-1.464-3.316-3.29-3.328-1.825-.011-3.31 1.464-3.326 3.29m-14.19.73c.403 1.786 2.165 2.916 3.948 2.519 1.782-.394 2.906-2.161 2.511-3.945-.389-1.783-2.159-2.908-3.944-2.515-1.779.392-2.908 2.16-2.515 3.941m-10.4 2.63c.693 1.694 2.618 2.514 4.312 1.822 1.691-.684 2.51-2.616 1.822-4.308-.686-1.694-2.621-2.509-4.314-1.823-1.686.692-2.507 2.619-1.82 4.309m-13.63 6.58c1.064 1.483 3.138 1.821 4.614.757 1.488-1.067 1.825-3.136.759-4.618-1.068-1.487-3.136-1.821-4.62-.757-1.482 1.068-1.821 3.134-.753 4.618m-8.746 6.74c1.309 1.277 3.401 1.256 4.684-.053 1.275-1.305 1.247-3.401-.059-4.675-1.307-1.281-3.401-1.253-4.676.049-1.277 1.31-1.253 3.402.051 4.679m-8.272 9.22c1.528.996 3.583.571 4.578-.959 1.006-1.527.582-3.578-.95-4.575-1.534-1.005-3.58-.575-4.58.951-1.004 1.532-.578 3.577.952 4.583m-5.885 9.71c1.684.714 3.631-.069 4.337-1.751.724-1.682-.066-3.624-1.748-4.339-1.684-.713-3.622.074-4.339 1.753-.714 1.682.075 3.621 1.75 4.337m-3.937 10.15c1.775.417 3.564-.687 3.976-2.464.421-1.779-.681-3.56-2.466-3.976-1.779-.419-3.556.688-3.976 2.462-.415 1.779.685 3.561 2.466 3.978m-2.434 13.66c1.836.025 3.338-1.438 3.357-3.265.021-1.825-1.438-3.325-3.267-3.35-1.828-.023-3.325 1.442-3.357 3.265-.012 1.825 1.445 3.324 3.267 3.35m.51 13.33c1.792-.36 2.959-2.101 2.598-3.892-.359-1.792-2.103-2.955-3.893-2.598-1.788.356-2.95 2.1-2.597 3.89.356 1.79 2.098 2.953 3.892 2.6m3.062 12.37c1.682-.707 2.478-2.646 1.77-4.331-.706-1.684-2.641-2.479-4.328-1.771-1.684.706-2.48 2.644-1.774 4.332.706 1.683 2.645 2.473 4.332 1.77m5.542 11.66c1.51-1.033 1.895-3.09.865-4.599-1.031-1.508-3.09-1.898-4.599-.865-1.505 1.031-1.896 3.089-.867 4.601 1.034 1.505 3.092 1.889 4.601.863m8.029 10.58c1.27-1.324 1.226-3.419-.099-4.678-1.319-1.263-3.414-1.216-4.676.102-1.262 1.325-1.214 3.419.106 4.681 1.319 1.26 3.41 1.212 4.669-.105m8.771 7.77c.998-1.53.57-3.582-.962-4.58-1.517-.999-3.573-.572-4.578.956-.995 1.533-.562 3.584.961 4.586 1.53.996 3.576.566 4.579-.962m9.99 6.01c.704-1.691-.09-3.627-1.781-4.33-1.68-.706-3.62.087-4.324 1.774-.71 1.687.089 3.623 1.773 4.33 1.686.705 3.623-.091 4.332-1.774m11.82 4.33c.362-1.795-.798-3.54-2.595-3.896-1.784-.364-3.535.795-3.893 2.59-.359 1.79.805 3.534 2.595 3.896 1.79.359 3.532-.802 3.893-2.59m4.44 11.47c.34-1.707-.761-3.363-2.467-3.704-1.697-.339-3.354.762-3.699 2.461-.341 1.702.764 3.36 2.466 3.702 1.7.341 3.355-.76 3.7-2.459m15.16.87c-.016-1.74-1.433-3.138-3.165-3.122-1.74.01-3.139 1.426-3.127 3.16.011 1.74 1.433 3.134 3.165 3.126 1.736-.014 3.132-1.429 3.127-3.164m17.19-2.83c-.419-1.688-2.126-2.718-3.805-2.3-1.683.415-2.716 2.118-2.297 3.802.415 1.688 2.119 2.714 3.805 2.302 1.684-.419 2.709-2.123 2.297-3.804m11.74-4.49c-.697-1.595-2.551-2.321-4.139-1.625-1.59.693-2.321 2.548-1.626 4.138.698 1.592 2.549 2.318 4.137 1.623 1.596-.697 2.317-2.546 1.628-4.136m-7.4-136.69c-.646 1.614.139 3.445 1.742 4.089 1.617.645 3.446-.138 4.092-1.751.642-1.613-.139-3.441-1.748-4.087-1.611-.641-3.437.141-4.086 1.749m-13.5-3.43c-.329 1.711.776 3.361 2.483 3.693 1.705.331 3.354-.778 3.69-2.479.332-1.709-.78-3.358-2.484-3.692-1.701-.331-3.349.779-3.689 2.478m-15.82-.75c.035 1.74 1.473 3.117 3.203 3.08 1.742-.034 3.113-1.474 3.076-3.209-.035-1.735-1.468-3.111-3.203-3.077-1.734.042-3.113 1.473-3.076 3.206m-14.16 2.24c.375 1.698 2.043 2.77 3.741 2.405 1.695-.369 2.773-2.041 2.404-3.737-.372-1.701-2.043-2.775-3.738-2.405-1.694.371-2.771 2.045-2.407 3.737m-13.97 5.15c.709 1.592 2.558 2.312 4.149 1.611 1.585-.701 2.305-2.554 1.608-4.142-.705-1.59-2.557-2.31-4.145-1.61-1.589.703-2.308 2.554-1.612 4.141m-14.144 9.02c1.038 1.394 3.007 1.678 4.4.64 1.391-1.04 1.668-3.009.627-4.399-1.035-1.393-3.002-1.677-4.396-.638-1.386 1.038-1.671 3.008-.631 4.397m-8.504 8.07c1.254 1.21 3.242 1.182 4.454-.06 1.204-1.242 1.181-3.237-.064-4.445-1.251-1.208-3.235-1.182-4.447.069-1.208 1.242-1.183 3.23.057 4.436m-8.412 11.39c1.454.95 3.403.543 4.353-.903.95-1.454.543-3.402-.911-4.353-1.45-.954-3.398-.543-4.351.91-.948 1.451-.54 3.395.909 4.346m-5.406 10.95c1.594.701 3.446-.018 4.147-1.607.698-1.587-.019-3.444-1.612-4.142-1.592-.696-3.441.017-4.144 1.61-.696 1.59.023 3.444 1.609 4.139m-4.025 14.19c1.703.368 3.378-.702 3.753-2.396.368-1.695-.706-3.372-2.4-3.743-1.702-.372-3.373.7-3.75 2.4-.361 1.693.706 3.367 2.397 3.739m-1.122 15.4c1.739.008 3.155-1.382 3.173-3.118.015-1.734-1.383-3.154-3.118-3.167-1.741-.01-3.156 1.384-3.168 3.12-.011 1.733 1.383 3.15 3.113 3.165m2.024 15c1.703-.342 2.807-1.995 2.471-3.697-.343-1.7-1.999-2.807-3.702-2.465-1.707.339-2.807 1.992-2.467 3.699.341 1.697 1.996 2.8 3.698 2.463m4.669 13.53c1.608-.664 2.375-2.495 1.717-4.098-.661-1.605-2.501-2.374-4.101-1.713-1.612.663-2.376 2.498-1.72 4.105.667 1.602 2.503 2.369 4.104 1.706m7.282 12.52c1.441-.966 1.845-2.912.886-4.36-.958-1.443-2.913-1.841-4.358-.879-1.45.961-1.843 2.907-.881 4.358.959 1.443 2.908 1.836 4.353.881m11.024 12.18c1.203-1.26 1.159-3.243-.092-4.445-1.256-1.201-3.244-1.157-4.443.099-1.203 1.256-1.16 3.24.099 4.446 1.252 1.195 3.239 1.152 4.436-.1m10.584 7.81c.955-1.455.566-3.397-.875-4.36-1.453-.959-3.409-.562-4.364.883-.958 1.448-.566 3.397.883 4.358 1.454.955 3.394.562 4.356-.881m12.85 6.21c.665-1.609-.094-3.443-1.695-4.11-1.602-.664-3.445.098-4.108 1.698-.667 1.608.09 3.442 1.701 4.113 1.601.657 3.44-.103 4.102-1.701m19.41 12.67c0-1.115-.902-2.016-2.015-2.016-1.114 0-2.016.901-2.016 2.016 0 1.109.902 2.014 2.016 2.014 1.113 0 2.015-.905 2.015-2.014m7.64 8.92c0-.891-.722-1.609-1.608-1.609-.891 0-1.615.718-1.615 1.609s.724 1.611 1.615 1.611c.886 0 1.608-.72 1.608-1.611m21.53-2.9c-.214-.865-1.077-1.394-1.947-1.186-.866.21-1.396 1.082-1.182 1.946.207.864 1.082 1.392 1.945 1.186.86-.211 1.394-1.084 1.184-1.946m16.55-6.04c-.371-.808-1.333-1.164-2.142-.788-.808.374-1.16 1.327-.784 2.139.372.805 1.325 1.16 2.134.788.805-.374 1.165-1.331.792-2.139m-7.5-167.67c-.325.827.091 1.765.911 2.087.831.32 1.769-.087 2.084-.917.327-.827-.085-1.763-.913-2.083-.822-.327-1.762.083-2.082.913m-16.65-4.477c-.166.878.416 1.716 1.286 1.877.876.161 1.72-.417 1.879-1.289.164-.878-.412-1.718-1.292-1.882-.871-.161-1.712.421-1.873 1.294m-18.95-1.209c.021.891.762 1.593 1.648 1.572.892-.03 1.596-.767 1.568-1.657-.016-.887-.756-1.594-1.647-1.567-.888.023-1.592.767-1.569 1.652m-19.05 2.808c.214.866 1.086 1.4 1.945 1.187.864-.212 1.394-1.082 1.187-1.943-.208-.864-1.077-1.4-1.944-1.191-.863.212-1.396 1.088-1.188 1.947m-16.85 6.164c.376.808 1.332 1.156 2.135.783.808-.377 1.163-1.332.785-2.137-.373-.809-1.328-1.162-2.138-.785-.805.375-1.157 1.334-.782 2.139M85.797 104.5c.534.715 1.541.86 2.253.322.706-.538.851-1.546.317-2.257-.531-.711-1.545-.857-2.254-.32-.707.536-.858 1.548-.316 2.255m-11.85 10.99c.649.607 1.669.568 2.276-.085.605-.655.57-1.675-.083-2.272-.654-.611-1.675-.579-2.276.079-.61.653-.568 1.672.083 2.278m-9.504 12.57c.748.484 1.746.269 2.225-.478.483-.746.276-1.742-.472-2.221-.752-.487-1.742-.278-2.229.469-.482.75-.274 1.746.476 2.23m-6.585 12.54c.815.366 1.772.002 2.129-.812.361-.815 0-1.766-.811-2.126-.816-.364-1.771-.003-2.135.812-.356.812.005 1.764.817 2.126m-5.247 16.3c.867.205 1.735-.331 1.94-1.196.198-.87-.333-1.735-1.199-1.938-.868-.207-1.735.329-1.937 1.197-.205.865.329 1.732 1.196 1.937m-2.15 20.11c.897.013 1.619-.697 1.627-1.59.004-.89-.709-1.62-1.593-1.626-.893-.009-1.618.702-1.631 1.592-.01.891.709 1.619 1.597 1.624m1.676 16.97c.877-.154 1.461-.991 1.302-1.865-.159-.879-.994-1.461-1.864-1.301-.885.153-1.463.991-1.304 1.868.154.876.991 1.457 1.866 1.298m5.562 18.2c.828-.333 1.22-1.271.888-2.096-.338-.824-1.277-1.222-2.099-.882-.829.333-1.221 1.272-.889 2.097.335.822 1.276 1.22 2.1.881m9.049 16.41c.739-.498.934-1.5.435-2.234-.502-.739-1.501-.937-2.23-.435-.743.496-.943 1.494-.442 2.232.498.739 1.5.933 2.237.437m12.224 14.23c.628-.639.614-1.656-.025-2.275-.642-.624-1.662-.61-2.272.03-.627.636-.614 1.654.024 2.277.637.62 1.656.605 2.273-.032m14.061 10.91c.487-.746.276-1.742-.469-2.229-.748-.482-1.749-.272-2.224.474-.492.746-.278 1.742.466 2.229.748.486 1.743.271 2.227-.474m16.537 8.21c.329-.832-.08-1.763-.908-2.087-.827-.325-1.765.083-2.081.911-.331.829.077 1.762.906 2.09.827.323 1.761-.088 2.083-.914m15.25 4.26c.179-.876-.384-1.723-1.256-1.9-.877-.175-1.726.386-1.9 1.257-.178.875.388 1.724 1.263 1.901.869.176 1.716-.386 1.893-1.258m29.05-8.03c-.249-1.082-1.329-1.76-2.415-1.511-1.078.25-1.762 1.329-1.509 2.412.245 1.082 1.326 1.76 2.412 1.514 1.081-.249 1.758-1.328 1.512-2.415m16.59-4.28c-.465-1.008-1.66-1.448-2.67-.982-1.012.468-1.449 1.663-.982 2.672.467 1.012 1.665 1.451 2.673.982 1.013-.466 1.441-1.663.979-2.672m12.89-6.12c-.635-.914-1.885-1.137-2.803-.506-.911.636-1.14 1.887-.511 2.801.642.914 1.896 1.142 2.807.506.914-.632 1.148-1.888.507-2.801m-4.59-144.88c-.423 1.026.063 2.202 1.104 2.625 1.018.423 2.198-.069 2.619-1.099.416-1.027-.066-2.203-1.095-2.628-1.029-.419-2.206.075-2.628 1.102m-14.91-5.776c-.221 1.091.486 2.15 1.583 2.368 1.09.216 2.15-.495 2.365-1.585.221-1.093-.49-2.152-1.58-2.366-1.093-.216-2.154.493-2.368 1.583m-17.09-2.884c.016 1.113.923 2.001 2.043 1.985 1.108-.016 2-.934 1.978-2.045-.013-1.112-.927-2.001-2.041-1.98-1.112.017-1.996.93-1.98 2.04m-18.02.859c.258 1.082 1.342 1.749 2.427 1.493 1.077-.257 1.747-1.345 1.485-2.426-.254-1.084-1.335-1.749-2.427-1.492-1.077.26-1.74 1.343-1.485 2.425m-14.45 3.65c.447 1.016 1.64 1.48 2.664 1.035 1.009-.451 1.473-1.641 1.022-2.657-.444-1.017-1.631-1.481-2.65-1.031-1.016.446-1.48 1.636-1.036 2.653m-16.27 7.811c.662.896 1.921 1.088 2.816.43.898-.659 1.086-1.919.425-2.814-.651-.897-1.912-1.092-2.807-.431-.897.658-1.09 1.919-.434 2.815m-12.546 9.6c.822.752 2.094.7 2.847-.116.752-.815.701-2.093-.116-2.845-.815-.752-2.089-.702-2.842.113-.758.816-.706 2.091.111 2.848m-9.596 10.62c.934.601 2.174.331 2.784-.606.598-.934.329-2.183-.614-2.777-.93-.603-2.173-.338-2.776.598-.602.937-.331 2.184.606 2.785m-7.451 11.78c1.029.437 2.205-.039 2.644-1.064.44-1.021-.039-2.208-1.065-2.638-1.02-.434-2.202.039-2.641 1.059-.435 1.025.045 2.209 1.062 2.643m-5.699 13.97c1.089.242 2.161-.442 2.407-1.526.242-1.086-.444-2.162-1.532-2.401-1.084-.244-2.154.439-2.4 1.527-.241 1.081.444 2.159 1.525 2.4m-3.338 17.69c1.113.004 2.017-.9 2.017-2.013 0-1.111-.901-2.012-2.017-2.01-1.102-.002-2.007.896-2.013 2.009 0 1.111.904 2.014 2.013 2.014m.276 15.61c1.093-.206 1.806-1.261 1.601-2.354-.211-1.092-1.268-1.808-2.356-1.596-1.09.205-1.809 1.26-1.601 2.352.21 1.091 1.259 1.807 2.356 1.598m3.481 16.15c1.031-.421 1.524-1.597 1.098-2.626-.417-1.028-1.6-1.52-2.626-1.095-1.03.421-1.519 1.595-1.1 2.624.424 1.026 1.604 1.519 2.628 1.097m6.606 15.08c.922-.619 1.173-1.868.557-2.793-.617-.925-1.873-1.172-2.791-.552-.927.614-1.176 1.866-.558 2.791.615.92 1.869 1.169 2.792.554m10.271 14.39c.776-.797.749-2.073-.051-2.848-.805-.771-2.072-.748-2.844.057-.772.799-.752 2.075.047 2.844.798.771 2.077.745 2.848-.053m12.015 11.06c.598-.935.324-2.181-.614-2.779-.939-.599-2.186-.323-2.773.612-.602.937-.331 2.182.606 2.781.938.599 2.181.322 2.781-.614m13.111 8.07c.423-1.028-.083-2.203-1.114-2.617-1.026-.412-2.202.089-2.616 1.122-.416 1.028.086 2.203 1.12 2.616 1.026.411 2.202-.091 2.61-1.121m15.16 5.71c.207-1.093-.515-2.143-1.608-2.351-1.091-.203-2.142.518-2.343 1.611-.211 1.092.507 2.145 1.6 2.348 1.095.204 2.153-.518 2.351-1.608" fill="#f1511b"/><path d="M151.4 182.38c-.905 6.399-4.843 8.614-9.19 8.614-5.25 0-8.862-3.036-10.006-8.614zm11.155-16.571c-5.089-6.81-11.648-10.42-20.016-10.42-10.747 0-21.085 6.81-21.085 21.905 0 13.782 8.861 21.575 20.428 21.575 10.829 0 15.34-6.481 16.164-7.712 3.361-4.757 4.101-11.894 4.18-15.997h-30.351c1.148-6.481 5.167-10.17 11.649-10.17 6.725 0 9.433 3.935 10.663 5.658zm16.985 31.831v-5.823c1.231 2.134 3.939 6.973 13.128 6.727v-10.092c-2.132-.082-5.823-.163-8.859-2.461-4.182-3.198-4.269-7.382-4.269-14.191v-15.178h-9.516v41.018zm44.3-14.52c-.739 2.707-3.609 6.973-9.27 6.973s-10.174-4.512-10.174-12.716c0-7.382 3.858-12.798 10.338-12.798 6.236 0 8.613 4.758 9.844 8.041l8.45-4.43c-3.199-8.86-11.321-12.799-18.458-12.799-11.406 0-20.343 8.778-20.343 21.74 0 12.553 9.02 21.739 20.673 21.739 10.335 0 15.586-6.89 17.716-11.649zM12.76 63.48v-3.462h7.095v-2.379H12.76v-3.945h8.286v-2.48H10.047v14.731h10.48V63.48zm19.497-1.833V51.214h-2.505v1.063c-.441-.418-1.461-1.314-3.383-1.314-1.711 0-2.523.728-2.899 1.209-.711.898-.711 1.878-.711 3.441v6.034h2.528v-5.991c0-.418 0-.772.08-1.045.271-.917 1.023-1.312 1.94-1.312 1.045 0 1.693.563 2.025 1.106.377.686.397 1.353.42 2.813v4.429h2.505m5.13 0v-1.483c.317.543 1.005 1.773 3.34 1.71v-2.565c-.538-.023-1.479-.043-2.251-.63-1.066-.813-1.089-1.877-1.089-3.607v-3.858H34.97v10.433h2.417m9.253-1.943c-1.564 0-2.691-1.254-2.691-3.173 0-2.147 1.316-3.339 2.817-3.339 1.818 0 2.735 1.587 2.673 3.32-.042 1.733-1.046 3.192-2.799 3.192m.126-8.802c-3.255 0-5.424 2.375-5.424 5.565 0 3.196 2.211 5.49 5.321 5.49 2.899 0 5.384-2.024 5.407-5.49 0-3.25-2.152-5.565-5.304-5.565m12.378 2.354c1.21 0 2.525.834 2.525 3.191 0 2.608-1.817 3.11-2.567 3.11-1.147 0-2.462-.834-2.503-3.067-.043-2.149 1.146-3.234 2.545-3.234m-5.009 8.392h2.48v-.962c.398.417 1.235 1.271 2.862 1.271 3.069 0 4.736-2.756 4.736-5.633 0-3.107-1.937-5.422-4.736-5.422-1.443 0-2.338.69-2.862 1.167v-4.254h-2.48v13.833m19.139-3.884c-.229 1.627-1.233 2.189-2.34 2.189-1.334 0-2.253-.77-2.544-2.189zm2.837-4.216c-1.293-1.73-2.963-2.645-5.092-2.645-2.733 0-5.364 1.731-5.364 5.564 0 3.511 2.251 5.49 5.196 5.49 2.756 0 3.903-1.65 4.112-1.961.857-1.21 1.045-3.024 1.065-4.068h-7.724c.294-1.648 1.319-2.587 2.965-2.587 1.713 0 2.403 1 2.715 1.439l2.127-1.232m8.038 2.857c-.502-.249-1.063-.438-2.191-.626-.899-.123-2.091-.332-2.091-1.438 0-.813.689-1.23 1.695-1.23 1.271 0 2.166.583 2.44 1.209.147.314.147.625.147.938zM77.7 58.577c.04.523.082.96.413 1.567 1.006 1.813 3.488 1.813 4.156 1.813 1.002 0 2.213-.122 3.131-.667 1.23-.753 1.253-1.734 1.253-2.862v-5.524c0-.795 0-1.065.46-1.689h-2.964c-.023.248-.064.666-.064.811-.542-.459-1.65-1.062-3.088-1.062-2.359 0-3.779 1.458-3.779 3.253 0 .52.125 1.001.332 1.419.754 1.501 2.363 1.833 3.362 2.023 2.152.437 2.318.479 3.237.769 0 .524-.041 1.59-1.776 1.59-1.04 0-1.607-.336-1.857-.67-.27-.333-.251-.626-.251-.92l-2.565.149m11.602 3.07h2.528v-1.232c.122.185.374.521.812.811.629.46 1.588.731 2.401.731 1.189 0 2.214-.539 2.738-1.25.643-.878.643-2.006.643-3.361v-6.132h-2.482v5.317c0 .772 0 1.294-.083 1.586-.231.918-.901 1.399-1.711 1.399-.815 0-1.568-.481-1.922-1.169-.396-.773-.396-1.836-.396-2.608v-4.525h-2.528v10.433m20.498 1.918v-4.613h.96c.94 0 1.295.021 1.814.042.606.021 2.59.126 2.59 2.275 0 .315-.022 1.399-1.169 1.984-.582.291-1.296.312-2.922.312zm-2.734 2.38h4.696c1.96-.021 3.277-.021 4.569-1.065.919-.752 1.63-1.92 1.63-3.632 0-2.82-2.069-3.798-2.901-4.049l3.277-5.985h-3.152l-2.922 5.463H109.8v-5.463h-2.734v14.731m20.124-8.181c-.23 1.627-1.232 2.189-2.34 2.189-1.335 0-2.252-.77-2.546-2.189zm2.838-4.216c-1.293-1.73-2.964-2.645-5.093-2.645-2.735 0-5.366 1.731-5.366 5.564 0 3.511 2.257 5.49 5.197 5.49 2.755 0 3.905-1.65 4.113-1.961.855-1.21 1.045-3.024 1.063-4.068h-7.72c.289-1.648 1.315-2.587 2.96-2.587 1.714 0 2.404 1 2.719 1.439l2.127-1.232m2.872.751c.626-.771 1.566-1.333 3.006-1.333 1.441 0 2.067.708 2.067 1.229 0 .667-.752.835-1.086.897-.356.085-2.066.398-2.442.501-2.483.586-2.942 2.022-2.942 2.965 0 1.772 1.607 3.399 4.466 3.399 1.586 0 2.736-.5 3.443-1.003.521-.332.854-.685 1.065-.935l-1.772-1.651c-.293.563-1.003 1.585-2.841 1.585-1.189 0-1.732-.519-1.732-1.064 0-.75.775-.959 2.108-1.189 2.172-.396 2.774-.501 3.444-1.022.647-.499 1.066-1.335 1.066-2.213 0-1.624-1.462-3.562-4.698-3.562-1.859 0-3.694.583-5.009 1.854l1.857 1.542m16.89 3.465c-.229 1.627-1.232 2.189-2.34 2.189-1.337 0-2.254-.77-2.547-2.189zm2.837-4.216c-1.296-1.73-2.962-2.645-5.094-2.645-2.734 0-5.359 1.731-5.359 5.564 0 3.511 2.252 5.49 5.193 5.49 2.757 0 3.903-1.65 4.11-1.961.858-1.21 1.045-3.024 1.069-4.068h-7.725c.294-1.648 1.317-2.587 2.967-2.587 1.707 0 2.399 1 2.711 1.439l2.128-1.232m8.033 2.857c-.501-.249-1.066-.438-2.191-.626-.899-.123-2.087-.332-2.087-1.438 0-.813.689-1.23 1.69-1.23 1.274 0 2.169.583 2.443 1.209.145.314.145.625.145.938zm-6.448 2.172c.04.523.084.96.417 1.567 1.003 1.813 3.486 1.813 4.154 1.813 1 0 2.211-.122 3.129-.667 1.233-.753 1.253-1.734 1.253-2.862v-5.524c0-.795 0-1.065.461-1.689h-2.966c-.022.248-.063.666-.063.811-.541-.459-1.647-1.062-3.087-1.062-2.36 0-3.78 1.458-3.78 3.253 0 .52.126 1.001.334 1.419.75 1.501 2.36 1.833 3.361 2.023 2.151.437 2.317.479 3.235.769 0 .524-.041 1.59-1.772 1.59-1.045 0-1.612-.336-1.859-.67-.272-.333-.252-.626-.252-.92l-2.565.149m14.048 3.07v-1.483c.312.543 1.001 1.773 3.34 1.71v-2.565c-.538-.023-1.481-.043-2.256-.63-1.063-.813-1.084-1.877-1.084-3.607v-3.858h-2.42v10.433h2.42m11.26-3.696c-.189.689-.919 1.772-2.359 1.772s-2.588-1.146-2.588-3.233c0-1.879.982-3.254 2.631-3.254 1.587 0 2.191 1.209 2.502 2.045l2.149-1.128c-.81-2.251-2.878-3.251-4.694-3.251-2.901 0-5.175 2.23-5.175 5.525 0 3.194 2.296 5.53 5.26 5.53 2.627 0 3.965-1.753 4.506-2.963l-2.232-1.043m5.78 7.994v-5.364c.793.791 1.877 1.376 3.318 1.376 1.291 0 2.296-.5 2.857-1.125.858-.918.876-1.983.876-3.173v-6.444h-2.462v5.733c-.039.941-.039 1.169-.163 1.48-.087.212-.443 1.15-1.819 1.15-1.607 0-2.363-1.295-2.525-1.9-.082-.332-.082-.501-.082-1.67v-4.793h-2.508v14.73h2.508m28.06-10.622c-.189-.482-.543-1.336-1.272-2.212-1.047-1.209-2.694-2.273-5.094-2.273-3.905 0-6.889 2.856-6.889 7.781 0 5.008 3.234 7.7 6.991 7.7 4.592 0 5.678-3.525 6.012-4.55l-2.755-.73c-.041.274-.165.898-.54 1.463-.314.458-1.13 1.291-2.653 1.291-2.398 0-4.071-1.983-4.071-5.131 0-3.363 1.776-5.219 4.092-5.219 1.38 0 2.213.668 2.817 1.442.48.644.672 1.188.772 1.52l2.59-1.082m6.36 4.381c-1.563 0-2.695-1.254-2.695-3.173 0-2.147 1.319-3.339 2.819-3.339 1.818 0 2.734 1.587 2.674 3.32-.044 1.733-1.047 3.192-2.798 3.192m.124-8.802c-3.255 0-5.429 2.375-5.429 5.565 0 3.196 2.217 5.49 5.326 5.49 2.901 0 5.384-2.024 5.406-5.49 0-3.25-2.148-5.565-5.303-5.565m16.806 10.745V51.214h-2.501v1.063c-.444-.418-1.461-1.314-3.384-1.314-1.71 0-2.523.728-2.902 1.209-.709.898-.709 1.878-.709 3.441v6.034h2.527v-5.991c0-.418 0-.772.081-1.045.273-.917 1.025-1.312 1.946-1.312 1.041 0 1.687.563 2.02 1.106.375.686.397 1.353.421 2.813v4.429h2.501m2.69 0h2.525v-1.232c.125.185.377.521.814.811.628.46 1.587.731 2.4.731 1.191 0 2.216-.539 2.737-1.25.645-.878.645-2.006.645-3.361v-6.132h-2.483v5.317c0 .772 0 1.294-.087 1.586-.23.918-.895 1.399-1.709 1.399-.812 0-1.567-.481-1.92-1.169-.397-.773-.397-1.836-.397-2.608v-4.525h-2.525v10.433m18.45-3.696c-.188.689-.918 1.772-2.359 1.772-1.438 0-2.589-1.146-2.589-3.233 0-1.879.981-3.254 2.632-3.254 1.587 0 2.191 1.209 2.503 2.045l2.15-1.128c-.812-2.251-2.88-3.251-4.696-3.251-2.903 0-5.175 2.23-5.175 5.525 0 3.194 2.296 5.53 5.258 5.53 2.63 0 3.967-1.753 4.506-2.963l-2.23-1.043m3.76 3.696h2.484V51.214h-2.484zm2.484 1.624h-2.484v2.525h2.484zm2.736-12.056h2.527v14.73h-2.527zM10.15 21.969v10.192h6.328v-.974h-5.239v-3.592h4.466v-.975h-4.466v-3.678h5.239v-.973zm10.618-.087c-1.188 0-2.119.272-2.892 1.017l.687.688c.559-.588 1.317-.817 2.191-.817 1.16 0 1.875.416 1.875 1.245 0 .615-.358.96-1.174 1.031l-1.159.101c-1.374.115-2.105.73-2.105 1.888 0 1.29 1.088 2.063 2.591 2.063 1.002 0 1.904-.244 2.534-.759l-.672-.674c-.501.388-1.146.56-1.876.56-1.031 0-1.575-.445-1.575-1.16 0-.602.344-.959 1.231-1.031l1.131-.1c1.231-.114 2.076-.587 2.076-1.904 0-1.359-1.159-2.148-2.863-2.148m6.71.087c-1.203 0-1.804.845-1.804 1.889v4.324h-.887v.787h.887v2.204h1.032v-2.204h1.502v-.787h-1.502v-4.294c0-.646.3-1.031.958-1.031h.544v-.888zm6.654 3.249h-1.976c-1.059 0-1.574-.43-1.574-1.245 0-.816.501-1.203 1.618-1.203.601 0 1.131.044 1.575.472.243.23.357.629.357 1.217zm0-3.249v.672c-.572-.571-1.088-.759-2.032-.759-.974 0-1.547.188-1.99.646-.344.342-.53.872-.53 1.43 0 1.232.859 2.032 2.433 2.032h2.119v.674c0 1.032-.516 1.546-1.803 1.546-.903 0-1.361-.216-1.776-.801l-.701.644c.629.815 1.346 1.045 2.491 1.045 1.89 0 2.82-.817 2.82-2.349v-4.78zm6.338 6.213c-1.532 0-1.776-1.317-1.776-2.691 0-1.375.244-2.693 1.776-2.693 1.531 0 1.761 1.318 1.761 2.693 0 1.374-.23 2.691-1.761 2.691m1.932-5.685c-.372-.371-1.002-.615-1.718-.615-.773 0-1.417.188-1.99.932v-.845h-1.03v10.192h1.03v-3.964c.573.73 1.217.901 1.99.901.716 0 1.346-.244 1.718-.615.715-.716.859-1.891.859-2.992 0-1.103-.144-2.277-.859-2.994m4.821-.528c-1.231 0-1.789.801-1.789 1.874v8.318h1.03v-8.273c0-.689.229-1.031.945-1.031h.558v-.888zm2.488 7.043h1.03v-7.043h-1.03zm-.057 3.164h1.16v-1.16h-1.16zm5.896-10.294c-1.189 0-2.119.272-2.892 1.017l.687.688c.558-.588 1.317-.817 2.19-.817 1.16 0 1.875.416 1.875 1.245 0 .615-.357.96-1.173 1.031l-1.16.101c-1.374.115-2.104.73-2.104 1.888 0 1.29 1.087 2.063 2.591 2.063 1.002 0 1.904-.244 2.533-.759l-.672-.674c-.501.388-1.146.56-1.875.56-1.031 0-1.575-.445-1.575-1.16 0-.602.344-.959 1.231-1.031l1.131-.1c1.231-.114 2.075-.587 2.075-1.904 0-1.359-1.159-2.148-2.862-2.148m9.387.087v4.351c0 1.232-.659 1.862-1.718 1.862s-1.761-.646-1.761-1.862v-4.351h-1.03v10.192h1.03v-3.922c.516.586 1.188.859 1.976.859 1.589 0 2.533-1.017 2.533-2.606v-4.523zm7.684 5.196c-.271.644-.902 1.06-1.646 1.06s-1.374-.416-1.646-1.06c-.158-.386-.186-.602-.215-1.175h3.722c-.028.573-.057.789-.215 1.175m-3.507-1.947c0-1.546.73-2.434 2.076-2.434.816 0 1.288.243 1.847.803l.701-.616c-.715-.716-1.374-1.089-2.577-1.089-1.86 0-3.078 1.117-3.078 3.608 0 2.277 1.102 3.608 2.892 3.608 1.818 0 2.892-1.318 2.892-3.409v-.471zm9.373 2.964c-1.532 0-1.775-1.317-1.775-2.691 0-1.375.243-2.693 1.775-2.693s1.761 1.318 1.761 2.693c0 1.374-.229 2.691-1.761 2.691m1.775-6.213v.845c-.573-.744-1.231-.932-2.004-.932-.716 0-1.346.244-1.718.615-.716.717-.859 1.891-.859 2.994 0 1.101.143 2.276.859 2.992.372.371 1.002.615 1.718.615.773 0 1.416-.171 1.99-.901v3.964h1.03V21.969zm9.957 6.213c-1.532 0-1.775-1.317-1.775-2.691 0-1.375.243-2.693 1.775-2.693s1.761 1.318 1.761 2.693c0 1.374-.229 2.691-1.761 2.691m1.933-5.685c-.372-.371-1.002-.615-1.719-.615-.773 0-1.417.188-1.989.932v-.845h-1.031v10.192h1.031v-3.964c.572.73 1.216.901 1.989.901.717 0 1.347-.244 1.719-.615.715-.716.859-1.891.859-2.992 0-1.103-.144-2.277-.859-2.994m4.806-2.232c-.143-.387-.3-.644-.501-.831-.373-.357-.873-.486-1.374-.486h-.444v.916h.316c.715 0 .93.23 1.159.874l.5 1.374-2.533 6.9h1.117l1.932-5.655 1.918 5.655h1.117zm10.189 1.704c-1.203 0-1.804.845-1.804 1.889v4.324h-.887v.787h.887v2.204h1.031v-2.204h1.502v-.787h-1.502v-4.294c0-.646.3-1.031.959-1.031h.543v-.888zm7.28 0v4.351c0 1.232-.659 1.862-1.718 1.862s-1.761-.646-1.761-1.862v-4.351h-1.03v10.192h1.03v-3.922c.516.586 1.188.859 1.976.859 1.589 0 2.533-1.017 2.533-2.606v-4.523zm7.68 5.196c-.271.644-.902 1.06-1.646 1.06s-1.374-.416-1.646-1.06c-.158-.386-.186-.602-.215-1.175h3.722c-.028.573-.057.789-.215 1.175m-3.507-1.947c0-1.546.73-2.434 2.075-2.434.817 0 1.289.243 1.848.803l.701-.616c-.716-.716-1.374-1.089-2.577-1.089-1.86 0-3.077 1.117-3.077 3.608 0 2.277 1.101 3.608 2.891 3.608 1.819 0 2.892-1.318 2.892-3.409v-.471zm10.697-3.249v10.192h6.328v-.974h-5.239v-3.592h4.466v-.975h-4.466v-3.678h5.239v-.973zm12.85 0v.787c-.5-.573-1.203-.874-1.99-.874-.759 0-1.388.23-1.818.659-.501.487-.715 1.159-.715 1.976v4.495h1.03v-4.337c0-1.245.659-1.877 1.718-1.877 1.06 0 1.761.646 1.761 1.877v4.337h1.032v-7.043zm7.52 5.696c-.386.388-.673.517-1.217.517-1.03 0-1.689-.818-1.689-1.891v-4.322h-1.032v7.043h1.032v-.861c.386.588 1.16.947 1.975.947.672 0 1.189-.158 1.69-.66zm5.39 0c-.329.329-.787.517-1.287.517-.503 0-.945-.188-1.274-.517-.516-.515-.573-1.388-.573-2.175s.057-1.661.573-2.176c.329-.329.771-.516 1.274-.516.5 0 .958.187 1.287.516.517.515.559 1.389.559 2.176s-.042 1.66-.559 2.175m.73-4.98c-.486-.487-1.158-.803-2.017-.803-.86 0-1.532.316-2.021.803-.714.728-.857 1.717-.857 2.805 0 1.087.143 2.076.857 2.805.489.488 1.161.803 2.021.803.859 0 1.531-.315 2.017-.803.717-.729.859-1.718.859-2.805 0-1.088-.142-2.077-.859-2.805m5.87 5.497c-1.532 0-1.776-1.317-1.776-2.691 0-1.375.244-2.693 1.776-2.693 1.531 0 1.76 1.318 1.76 2.693 0 1.374-.229 2.691-1.76 2.691m1.932-5.685c-.372-.371-1.002-.615-1.72-.615-.772 0-1.415.188-1.988.916v-3.979h-1.032v10.193h1.032v-.83c.573.745 1.216.916 1.988.916.718 0 1.348-.244 1.72-.615.714-.716.859-1.891.859-2.992 0-1.103-.145-2.277-.859-2.994m7.208 4.668c-.271.644-.902 1.06-1.646 1.06s-1.374-.416-1.646-1.06c-.159-.386-.187-.602-.216-1.175h3.722c-.028.573-.057.789-.214 1.175m-3.508-1.947c0-1.546.731-2.434 2.076-2.434.816 0 1.288.243 1.847.803l.701-.616c-.715-.716-1.373-1.089-2.576-1.089-1.86 0-3.077 1.117-3.077 3.608 0 2.277 1.1 3.608 2.891 3.608 1.817 0 2.892-1.318 2.892-3.409v-.471zm10.938 0h-1.978c-1.057 0-1.574-.43-1.574-1.245 0-.816.502-1.203 1.618-1.203.602 0 1.131.044 1.575.472.244.23.359.629.359 1.217zm0-3.249v.672c-.573-.571-1.09-.759-2.034-.759-.973 0-1.546.188-1.99.646-.343.342-.529.872-.529 1.43 0 1.232.86 2.032 2.434 2.032h2.119v.674c0 1.032-.517 1.546-1.805 1.546-.901 0-1.359-.216-1.775-.801l-.7.644c.629.815 1.343 1.045 2.49 1.045 1.889 0 2.819-.817 2.819-2.349v-4.78zm8.04 0v4.337c0 1.246-.672 1.876-1.733 1.876-1.058 0-1.746-.646-1.746-1.876v-4.337h-1.031v7.043h1.031v-.773c.5.573 1.189.859 1.976.859.759 0 1.374-.23 1.804-.659.501-.487.728-1.145.728-1.96v-4.51zm10.46-.087c-1.003 0-1.919.373-2.605 1.06-.959.96-.959 1.961-.959 4.123 0 2.163 0 3.164.959 4.122.686.688 1.602 1.059 2.605 1.059 1.832 0 3.192-1.116 3.535-3.035h-1.116c-.272 1.247-1.144 2.063-2.419 2.063-.674 0-1.318-.258-1.76-.716-.645-.658-.717-1.361-.717-3.493 0-2.134.072-2.834.717-3.494.442-.457 1.086-.714 1.76-.714 1.275 0 2.175.815 2.447 2.06h1.088c-.329-1.918-1.717-3.035-3.535-3.035m9.54 5.783c-.331.329-.787.517-1.29.517-.5 0-.944-.188-1.273-.517-.517-.515-.573-1.388-.573-2.175s.056-1.661.573-2.176c.329-.329.773-.516 1.273-.516.503 0 .959.187 1.29.516.515.515.557 1.389.557 2.176s-.042 1.66-.557 2.175m.73-4.98c-.488-.487-1.16-.803-2.02-.803-.859 0-1.531.316-2.018.803-.716.728-.858 1.717-.858 2.805 0 1.087.142 2.076.858 2.805.487.488 1.159.803 2.018.803.86 0 1.532-.315 2.02-.803.715-.729.858-1.718.858-2.805 0-1.088-.143-2.077-.858-2.805m12.11-.716v4.337c0 1.246-.672 1.876-1.729 1.876-1.034 0-1.762-.646-1.762-1.762v-4.451h-1.031v4.337c0 1.246-.674 1.876-1.732 1.876-1.059 0-1.762-.646-1.762-1.876v-4.337h-1.029v7.043h1.029v-.773c.503.573 1.204.859 1.991.859.974 0 1.731-.401 2.163-1.174.543.773 1.33 1.174 2.316 1.174.761 0 1.391-.244 1.818-.659.503-.487.761-1.145.761-1.96v-4.51zm12.58 0v4.337c0 1.246-.673 1.876-1.732 1.876-1.031 0-1.761-.646-1.761-1.762v-4.451h-1.03v4.337c0 1.246-.674 1.876-1.733 1.876-1.058 0-1.762-.646-1.762-1.876v-4.337h-1.029v7.043h1.029v-.773c.502.573 1.205.859 1.992.859.972 0 1.731-.401 2.161-1.174.543.773 1.332 1.174 2.319 1.174.759 0 1.388-.244 1.818-.659.5-.487.758-1.145.758-1.96v-4.51zm3.53 7.043h1.031v-7.043h-1.031zm-.057 3.164h1.16v-1.16h-1.16zm5.887-10.294c-1.188 0-2.118.272-2.892 1.017l.689.688c.557-.588 1.315-.817 2.189-.817 1.159 0 1.875.416 1.875 1.245 0 .615-.357.96-1.174 1.031l-1.159.101c-1.375.115-2.105.73-2.105 1.888 0 1.29 1.088 2.063 2.592 2.063 1.003 0 1.904-.244 2.534-.759l-.674-.674c-.5.388-1.145.56-1.875.56-1.031 0-1.574-.445-1.574-1.16 0-.602.344-.959 1.231-1.031l1.13-.1c1.232-.114 2.077-.587 2.077-1.904 0-1.359-1.16-2.148-2.864-2.148m6.87 0c-1.188 0-2.119.272-2.892 1.017l.689.688c.557-.588 1.315-.817 2.189-.817 1.159 0 1.875.416 1.875 1.245 0 .615-.357.96-1.174 1.031l-1.159.101c-1.375.115-2.105.73-2.105 1.888 0 1.29 1.088 2.063 2.592 2.063 1.003 0 1.904-.244 2.534-.759l-.674-.674c-.501.388-1.145.56-1.875.56-1.031 0-1.574-.445-1.574-1.16 0-.602.344-.959 1.231-1.031l1.13-.1c1.232-.114 2.077-.587 2.077-1.904 0-1.359-1.161-2.148-2.864-2.148m4.88 7.13h1.031v-7.043h-1.031zm-.057 3.164h1.16v-1.16h-1.16zm7.467-4.511c-.329.329-.787.517-1.287.517-.501 0-.945-.188-1.275-.517-.515-.515-.572-1.388-.572-2.175s.057-1.661.572-2.176c.33-.329.774-.516 1.275-.516.5 0 .958.187 1.287.516.517.515.559 1.389.559 2.176s-.042 1.66-.559 2.175m.73-4.98c-.486-.487-1.16-.803-2.017-.803-.86 0-1.532.316-2.019.803-.716.728-.859 1.717-.859 2.805 0 1.087.143 2.076.859 2.805.487.488 1.159.803 2.019.803.857 0 1.531-.315 2.017-.803.717-.729.86-1.718.86-2.805 0-1.088-.143-2.077-.86-2.805m7.57-.716v4.337c0 1.246-.672 1.876-1.731 1.876-1.06 0-1.748-.646-1.748-1.876v-4.337h-1.031v7.043h1.031v-.773c.5.573 1.189.859 1.975.859.76 0 1.375-.23 1.805-.659.501-.487.73-1.145.73-1.96v-4.51z" fill="currentColor"/></g></svg>